<svg xmlns="http://www.w3.org/2000/svg" width="519.0" height="142.8" viewBox="0 0 519.0 142.8">
<rect width="519.0" height="142.8" fill="#1800AD"/>
<g fill="#FFFFFF">
<path transform="translate(40.00,100.35) scale(0.064000,-0.064000)" d="M60 0V810H332Q405 810 452.0 782.5Q499 755 522.0 702.5Q545 650 545 575Q545 481 514.0 431.5Q483 382 430.0 363.0Q377 344 311 344H239V0ZM239 469H299Q332 469 349.0 481.0Q366 493 371.5 517.0Q377 541 377 578Q377 609 372.5 632.5Q368 656 351.0 670.0Q334 684 298 684H239Z"/>
<path transform="translate(80.54,100.35) scale(0.064000,-0.064000)" d="M292 -12Q201 -12 148.0 20.0Q95 52 72.0 112.0Q49 172 49 255V556Q49 640 72.0 699.0Q95 758 148.0 789.5Q201 821 292 821Q384 821 437.5 789.5Q491 758 514.0 699.0Q537 640 537 556V255Q537 172 514.0 112.0Q491 52 437.5 20.0Q384 -12 292 -12ZM292 115Q320 115 333.0 129.0Q346 143 350.0 165.0Q354 187 354 210V600Q354 624 350.0 645.5Q346 667 333.0 681.0Q320 695 292 695Q266 695 253.0 681.0Q240 667 236.0 645.5Q232 624 232 600V210Q232 187 235.5 165.0Q239 143 251.5 129.0Q264 115 292 115Z"/>
<path transform="translate(122.05,100.35) scale(0.064000,-0.064000)" d="M125 0 27 810H179L227 338L288 809H407L471 341L520 810H670L573 0H417L348 489L283 0Z"/>
<path transform="translate(170.66,100.35) scale(0.064000,-0.064000)" d="M60 0V810H424V688H239V487H380V363H239V121H426V0Z"/>
<path transform="translate(203.26,100.35) scale(0.064000,-0.064000)" d="M60 0V810H283Q365 810 425.0 792.0Q485 774 518.5 727.5Q552 681 552 596Q552 546 544.0 507.0Q536 468 514.5 439.5Q493 411 453 392L564 0H379L290 363H239V0ZM239 466H289Q327 466 348.0 479.5Q369 493 377.5 518.5Q386 544 386 580Q386 632 367.0 661.0Q348 690 297 690H239Z"/>
<path transform="translate(245.66,100.35) scale(0.064000,-0.064000)" d="M60 0V810H271Q323 810 369.5 802.0Q416 794 452.0 771.5Q488 749 508.5 707.5Q529 666 529 598Q529 549 514.5 515.5Q500 482 473.5 462.0Q447 442 410 435Q457 429 489.0 404.5Q521 380 537.5 339.0Q554 298 554 240Q554 177 537.5 131.5Q521 86 490.0 57.0Q459 28 413.5 14.0Q368 0 309 0ZM239 125H277Q336 125 358.5 155.0Q381 185 381 243Q381 289 371.0 316.0Q361 343 338.0 355.5Q315 368 276 368H239ZM239 486H274Q315 486 336.0 498.5Q357 511 364.5 535.0Q372 559 372 593Q372 625 360.5 646.5Q349 668 326.5 679.0Q304 690 270 690H239Z"/>
<path transform="translate(287.30,100.35) scale(0.064000,-0.064000)" d="M21 0 174 810H378L529 0H364L337 171H218L190 0ZM234 278H320L277 594Z"/>
<path transform="translate(326.56,100.35) scale(0.064000,-0.064000)" d="M60 0V810H186L352 420V810H500V0H379L213 420V0Z"/>
<path transform="translate(366.46,100.35) scale(0.064000,-0.064000)" d="M60 0V810H265Q371 810 430.0 783.5Q489 757 513.0 700.5Q537 644 537 554V260Q537 169 513.0 111.5Q489 54 430.5 27.0Q372 0 267 0ZM239 124H267Q308 124 326.0 136.0Q344 148 348.5 172.0Q353 196 353 232V585Q353 621 347.5 643.0Q342 665 324.0 675.0Q306 685 266 685H239Z"/>
<path transform="translate(407.97,100.35) scale(0.064000,-0.064000)" d="M60 0V810H424V688H239V487H380V363H239V121H426V0Z"/>
<path transform="translate(440.58,100.35) scale(0.064000,-0.064000)" d="M60 0V810H283Q365 810 425.0 792.0Q485 774 518.5 727.5Q552 681 552 596Q552 546 544.0 507.0Q536 468 514.5 439.5Q493 411 453 392L564 0H379L290 363H239V0ZM239 466H289Q327 466 348.0 479.5Q369 493 377.5 518.5Q386 544 386 580Q386 632 367.0 661.0Q348 690 297 690H239Z"/>
</g>
</svg>